# xmcd
#
# Track frame offsets: 
#        150
#        11771
#        25943
#        48076
#        61481
#        75541
#        90148
#        103875
#        117581
#        130648
#        142367
#        156395
#        170376
#        184532
#        198428
#        207053
#        219316
#        230758
#        240344
#        251208
#        256741
#        270627
#        284829
#        294586
#        309333
#
# Disc length: 4307 seconds
#
# Revision: 0
# Processed by: cddbd v1.5.2PL0 Copyright (c) Steve Scherf et al.
# Submitted via: ExactAudioCopy v1.0b3
#
DISCID=6a10d119
DTITLE=Lead Belly - American Folk and Blues Anthology [Diac 2]
DYEAR=2013
DGENRE=Blues
TTITLE0=Rock Island Line
TTITLE1=Yellow Gal
TTITLE2=4,5 And 9
TTITLE3=Pick A Bale Of Cotton
TTITLE4=Looky Looky Yonder,Black Betty
TTITLE5=John Hardy
TTITLE6=You Can't Lose-A Me Cholly
TTITLE7=Howard Hughes
TTITLE8=My Baby Quit Me
TTITLE9=Fannin Street
TTITLE10=Blind Lemon
TTITLE11=Don't You Love Your Daddy No More?
TTITLE12=Red Cross Store Blues
TTITLE13=Alabama Bound
TTITLE14=Black Betty
TTITLE15=Salty Dog
TTITLE16=Mother's Blues (With Josh White)
TTITLE17=Cotton Fields
TTITLE18=Jim Crow Blues
TTITLE19=Bottle Up And Go
TTITLE20=Becky Deem, She Was A Gamblin' Girl
TTITLE21=Didn't Ol' John Cross The Water
TTITLE22=Corn Bread Rough
TTITLE23=In New Orleans (House Of The Rising Sun)
TTITLE24=Where Did You Sleep Last Night?
EXTD=
EXTT0=
EXTT1=
EXTT2=
EXTT3=
EXTT4=
EXTT5=
EXTT6=
EXTT7=
EXTT8=
EXTT9=
EXTT10=
EXTT11=
EXTT12=
EXTT13=
EXTT14=
EXTT15=
EXTT16=
EXTT17=
EXTT18=
EXTT19=
EXTT20=
EXTT21=
EXTT22=
EXTT23=
EXTT24=
PLAYORDER=
